<svg width="167" height="43" viewBox="0 0 167 43" fill="none" xmlns="http://www.w3.org/2000/svg">
<path d="M0 0H167V43H0V0Z" fill="#D9D9D9"/>
<path d="M49.2718 31V13.5H53.3218V31H49.2718Z" fill="#000080"/>
<path d="M65.3749 17.35C66.4416 17.35 67.3916 17.5667 68.2249 18C69.0749 18.4167 69.7416 19.0667 70.2249 19.95C70.7082 20.8167 70.9499 21.9333 70.9499 23.3V31H67.0499V23.9C67.0499 22.8167 66.8082 22.0167 66.3249 21.5C65.8582 20.9833 65.1916 20.725 64.3249 20.725C63.7082 20.725 63.1499 20.8583 62.6499 21.125C62.1666 21.375 61.7832 21.7667 61.4999 22.3C61.2332 22.8333 61.0999 23.5167 61.0999 24.35V31H57.1999V17.55H60.9249V21.275L60.2249 20.15C60.7082 19.25 61.3999 18.5583 62.2999 18.075C63.1999 17.5917 64.2249 17.35 65.3749 17.35Z" fill="#000080"/>
<path d="M74.4851 31V17.55H78.3851V31H74.4851ZM76.4351 15.675C75.7184 15.675 75.1351 15.4667 74.6851 15.05C74.2351 14.6333 74.0101 14.1167 74.0101 13.5C74.0101 12.8833 74.2351 12.3667 74.6851 11.95C75.1351 11.5333 75.7184 11.325 76.4351 11.325C77.1517 11.325 77.7351 11.525 78.1851 11.925C78.6351 12.3083 78.8601 12.8083 78.8601 13.425C78.8601 14.075 78.6351 14.6167 78.1851 15.05C77.7517 15.4667 77.1684 15.675 76.4351 15.675Z" fill="#000080"/>
<path d="M88.5046 31.2C87.0546 31.2 85.7629 30.9083 84.6296 30.325C83.4963 29.725 82.6046 28.9 81.9546 27.85C81.3213 26.8 81.0046 25.6083 81.0046 24.275C81.0046 22.925 81.3213 21.7333 81.9546 20.7C82.6046 19.65 83.4963 18.8333 84.6296 18.25C85.7629 17.65 87.0546 17.35 88.5046 17.35C89.9213 17.35 91.1546 17.65 92.2046 18.25C93.2546 18.8333 94.0296 19.675 94.5296 20.775L91.5046 22.4C91.1546 21.7667 90.7129 21.3 90.1796 21C89.6629 20.7 89.0963 20.55 88.4796 20.55C87.8129 20.55 87.2129 20.7 86.6796 21C86.1463 21.3 85.7213 21.725 85.4046 22.275C85.1046 22.825 84.9546 23.4917 84.9546 24.275C84.9546 25.0583 85.1046 25.725 85.4046 26.275C85.7213 26.825 86.1463 27.25 86.6796 27.55C87.2129 27.85 87.8129 28 88.4796 28C89.0963 28 89.6629 27.8583 90.1796 27.575C90.7129 27.275 91.1546 26.8 91.5046 26.15L94.5296 27.8C94.0296 28.8833 93.2546 29.725 92.2046 30.325C91.1546 30.9083 89.9213 31.2 88.5046 31.2Z" fill="#000080"/>
<path d="M96.7019 31V17.55H100.602V31H96.7019ZM98.6519 15.675C97.9352 15.675 97.3519 15.4667 96.9019 15.05C96.4519 14.6333 96.2269 14.1167 96.2269 13.5C96.2269 12.8833 96.4519 12.3667 96.9019 11.95C97.3519 11.5333 97.9352 11.325 98.6519 11.325C99.3685 11.325 99.9519 11.525 100.402 11.925C100.852 12.3083 101.077 12.8083 101.077 13.425C101.077 14.075 100.852 14.6167 100.402 15.05C99.9685 15.4667 99.3852 15.675 98.6519 15.675Z" fill="#000080"/>
<path d="M110.621 31.2C109.188 31.2 107.913 30.9 106.796 30.3C105.696 29.7 104.821 28.8833 104.171 27.85C103.538 26.8 103.221 25.6083 103.221 24.275C103.221 22.925 103.538 21.7333 104.171 20.7C104.821 19.65 105.696 18.8333 106.796 18.25C107.913 17.65 109.188 17.35 110.621 17.35C112.038 17.35 113.305 17.65 114.421 18.25C115.538 18.8333 116.413 19.6417 117.046 20.675C117.68 21.7083 117.996 22.9083 117.996 24.275C117.996 25.6083 117.68 26.8 117.046 27.85C116.413 28.8833 115.538 29.7 114.421 30.3C113.305 30.9 112.038 31.2 110.621 31.2ZM110.621 28C111.271 28 111.855 27.85 112.371 27.55C112.888 27.25 113.296 26.825 113.596 26.275C113.896 25.7083 114.046 25.0417 114.046 24.275C114.046 23.4917 113.896 22.825 113.596 22.275C113.296 21.725 112.888 21.3 112.371 21C111.855 20.7 111.271 20.55 110.621 20.55C109.971 20.55 109.388 20.7 108.871 21C108.355 21.3 107.938 21.725 107.621 22.275C107.321 22.825 107.171 23.4917 107.171 24.275C107.171 25.0417 107.321 25.7083 107.621 26.275C107.938 26.825 108.355 27.25 108.871 27.55C109.388 27.85 109.971 28 110.621 28Z" fill="#000080"/>
</svg>
