<svg width="154" height="40" viewBox="0 0 154 40" fill="none" xmlns="http://www.w3.org/2000/svg">
<path d="M0 5C0 2.23858 2.23858 0 5 0H149C151.761 0 154 2.23858 154 5V35C154 37.7614 151.761 40 149 40H5C2.23858 40 0 37.7614 0 35V5Z" fill="white"/>
<path d="M56.7361 29.3C55.3361 29.3 53.9945 29.1167 52.7111 28.75C51.4278 28.3667 50.3945 27.875 49.6111 27.275L50.9861 24.225C51.7361 24.7583 52.6195 25.2 53.6361 25.55C54.6695 25.8833 55.7111 26.05 56.7611 26.05C57.5611 26.05 58.2028 25.975 58.6861 25.825C59.1861 25.6583 59.5528 25.4333 59.7861 25.15C60.0195 24.8667 60.1361 24.5417 60.1361 24.175C60.1361 23.7083 59.9528 23.3417 59.5861 23.075C59.2195 22.7917 58.7361 22.5667 58.1361 22.4C57.5361 22.2167 56.8695 22.05 56.1361 21.9C55.4195 21.7333 54.6945 21.5333 53.9611 21.3C53.2445 21.0667 52.5861 20.7667 51.9861 20.4C51.3861 20.0333 50.8945 19.55 50.5111 18.95C50.1445 18.35 49.9611 17.5833 49.9611 16.65C49.9611 15.65 50.2278 14.7417 50.7611 13.925C51.3111 13.0917 52.1278 12.4333 53.2111 11.95C54.3111 11.45 55.6861 11.2 57.3361 11.2C58.4361 11.2 59.5195 11.3333 60.5861 11.6C61.6528 11.85 62.5945 12.2333 63.4111 12.75L62.1611 15.825C61.3445 15.3583 60.5278 15.0167 59.7111 14.8C58.8945 14.5667 58.0945 14.45 57.3111 14.45C56.5278 14.45 55.8861 14.5417 55.3861 14.725C54.8861 14.9083 54.5278 15.15 54.3111 15.45C54.0945 15.7333 53.9861 16.0667 53.9861 16.45C53.9861 16.9 54.1695 17.2667 54.5361 17.55C54.9028 17.8167 55.3861 18.0333 55.9861 18.2C56.5861 18.3667 57.2445 18.5333 57.9611 18.7C58.6945 18.8667 59.4195 19.0583 60.1361 19.275C60.8695 19.4917 61.5361 19.7833 62.1361 20.15C62.7361 20.5167 63.2195 21 63.5861 21.6C63.9695 22.2 64.1611 22.9583 64.1611 23.875C64.1611 24.8583 63.8861 25.7583 63.3361 26.575C62.7861 27.3917 61.9611 28.05 60.8611 28.55C59.7778 29.05 58.4028 29.3 56.7361 29.3Z" fill="#000080"/>
<path d="M74.9035 29V26.375L74.6535 25.8V21.1C74.6535 20.2667 74.3952 19.6167 73.8785 19.15C73.3785 18.6833 72.6035 18.45 71.5535 18.45C70.8368 18.45 70.1285 18.5667 69.4285 18.8C68.7452 19.0167 68.1618 19.3167 67.6785 19.7L66.2785 16.975C67.0118 16.4583 67.8952 16.0583 68.9285 15.775C69.9618 15.4917 71.0118 15.35 72.0785 15.35C74.1285 15.35 75.7202 15.8333 76.8535 16.8C77.9868 17.7667 78.5535 19.275 78.5535 21.325V29H74.9035ZM70.8035 29.2C69.7535 29.2 68.8535 29.025 68.1035 28.675C67.3535 28.3083 66.7785 27.8167 66.3785 27.2C65.9785 26.5833 65.7785 25.8917 65.7785 25.125C65.7785 24.325 65.9702 23.625 66.3535 23.025C66.7535 22.425 67.3785 21.9583 68.2285 21.625C69.0785 21.275 70.1868 21.1 71.5535 21.1H75.1285V23.375H71.9785C71.0619 23.375 70.4285 23.525 70.0785 23.825C69.7452 24.125 69.5785 24.5 69.5785 24.95C69.5785 25.45 69.7702 25.85 70.1535 26.15C70.5535 26.4333 71.0952 26.575 71.7785 26.575C72.4285 26.575 73.0118 26.425 73.5285 26.125C74.0452 25.8083 74.4202 25.35 74.6535 24.75L75.2535 26.55C74.9702 27.4167 74.4535 28.075 73.7035 28.525C72.9535 28.975 71.9868 29.2 70.8035 29.2Z" fill="#000080"/>
<path d="M82.0832 29V10.45H85.9832V29H82.0832Z" fill="#000080"/>
<path d="M89.6027 29V15.55H93.5027V29H89.6027ZM91.5527 13.675C90.8361 13.675 90.2527 13.4667 89.8027 13.05C89.3527 12.6333 89.1277 12.1167 89.1277 11.5C89.1277 10.8833 89.3527 10.3667 89.8027 9.95C90.2527 9.53333 90.8361 9.325 91.5527 9.325C92.2694 9.325 92.8527 9.525 93.3027 9.925C93.7527 10.3083 93.9777 10.8083 93.9777 11.425C93.9777 12.075 93.7527 12.6167 93.3027 13.05C92.8694 13.4667 92.2861 13.675 91.5527 13.675Z" fill="#000080"/>
<path d="M97.1223 29V15.55H100.847V19.35L100.322 18.25C100.722 17.3 101.364 16.5833 102.247 16.1C103.131 15.6 104.206 15.35 105.472 15.35V18.95C105.306 18.9333 105.156 18.925 105.022 18.925C104.889 18.9083 104.747 18.9 104.597 18.9C103.531 18.9 102.664 19.2083 101.997 19.825C101.347 20.425 101.022 21.3667 101.022 22.65V29H97.1223Z" fill="#000080"/>
</svg>
