<svg width="26" height="20" viewBox="0 0 26 20" fill="none" xmlns="http://www.w3.org/2000/svg">
<path d="M12.8059 0C6.88553 0 2.65722 4.92831 0.662992 7.8654C-0.221057 9.16742 -0.221057 10.8326 0.662992 12.1346C2.65722 15.0717 6.88553 20 12.8059 20C18.5843 20 22.7701 15.0743 24.7525 12.1369C25.6329 10.8324 25.6329 9.16755 24.7525 7.86305C22.7701 4.92569 18.5843 0 12.8059 0ZM12.7059 3.33333C16.4059 3.33333 19.3726 6.33333 19.3726 10C19.3726 13.7 16.4059 16.6667 12.7059 16.6667C9.03923 16.6667 6.03923 13.7 6.03923 10C6.03923 6.33333 9.03923 3.33333 12.7059 3.33333ZM12.7059 6.66667C10.8726 6.66667 9.37256 8.16667 9.37256 10C9.37256 11.8333 10.8726 13.3333 12.7059 13.3333C14.5392 13.3333 16.0392 11.8333 16.0392 10C16.0392 9.67991 15.4767 9.59936 15.2038 9.76662C14.9646 9.91323 14.6831 10 14.3726 10C13.4392 10 12.7059 9.26667 12.7059 8.33333C12.7059 8.02337 12.7924 7.74223 12.9385 7.50332C13.1232 7.2014 13.0598 6.66667 12.7059 6.66667Z" fill="white"/>
</svg>
