<svg width="23" height="23" viewBox="0 0 23 23" fill="none" xmlns="http://www.w3.org/2000/svg">
<path d="M9.625 0C9.07272 0 8.625 0.447715 8.625 1V7.625C8.625 8.17729 8.17728 8.625 7.625 8.625H5.28921C4.39831 8.625 3.95214 9.70214 4.58211 10.3321L10.7929 16.5429C11.1834 16.9334 11.8166 16.9334 12.2071 16.5429L18.4179 10.3321C19.0479 9.70214 18.6017 8.625 17.7108 8.625H15.375C14.8227 8.625 14.375 8.17728 14.375 7.625V1C14.375 0.447715 13.9273 0 13.375 0H9.625ZM1 20.125C0.447715 20.125 0 20.5727 0 21.125V22C0 22.5523 0.447715 23 1 23H22C22.5523 23 23 22.5523 23 22V21.125C23 20.5727 22.5523 20.125 22 20.125H1Z" fill="white"/>
</svg>
