<svg width="24" height="24" viewBox="0 0 24 24" fill="none" xmlns="http://www.w3.org/2000/svg">
<path d="M2.51051 1.32429H21.4893C22.1444 1.32429 22.6754 1.85526 22.6754 2.5103L22.6757 4.39134C22.6758 4.70601 22.5508 5.00778 22.3282 5.23027L14.7196 12.8385C14.4972 13.0609 14.3722 13.3627 14.3722 13.6772V21.156C14.3722 21.9277 13.6469 22.494 12.8983 22.3068L10.526 21.7138C9.99793 21.5817 9.6275 21.1073 9.6275 20.5629V13.6772C9.6275 13.3627 9.50253 13.0609 9.28009 12.8385L1.67177 5.2302C1.44931 5.00776 1.32435 4.70604 1.32435 4.39146V2.51045C1.32435 1.85536 1.85541 1.32429 2.51051 1.32429Z" stroke="black" stroke-width="2.64635" stroke-linecap="round" stroke-linejoin="round"/>
</svg>
