<svg width="25" height="24" viewBox="0 0 25 24" fill="none" xmlns="http://www.w3.org/2000/svg">
<path d="M2.56378 1.34291H22.0967C22.771 1.34291 23.3175 1.88136 23.3175 2.54561L23.3177 4.45311C23.3179 4.7722 23.1892 5.07822 22.9602 5.30383L15.1293 13.0191C14.9004 13.2446 14.7718 13.5506 14.7718 13.8696V21.4536C14.7718 22.2361 14.0254 22.8104 13.2549 22.6206L10.8133 22.0192C10.2698 21.8853 9.88858 21.4041 9.88858 20.8521V13.8696C9.88858 13.5506 9.75996 13.2446 9.53102 13.0191L1.70054 5.30376C1.47159 5.07819 1.34298 4.77223 1.34298 4.45323V2.54576C1.34298 1.88145 1.88954 1.34291 2.56378 1.34291Z" stroke="black" stroke-opacity="0.6" stroke-width="2.64635" stroke-linecap="round" stroke-linejoin="round"/>
</svg>
