<svg width="136" height="37" viewBox="0 0 136 37" fill="none" xmlns="http://www.w3.org/2000/svg">
<path d="M0 18.5C0 8.28273 8.28273 0 18.5 0H117.5C127.717 0 136 8.28273 136 18.5C136 28.7173 127.717 37 117.5 37H18.5C8.28273 37 0 28.7173 0 18.5Z" fill="#D9D9D9"/>
<path d="M15.1378 25V11.9091H20.3793C21.3423 11.9091 22.1456 12.0518 22.7891 12.3374C23.4325 12.6229 23.9162 13.0192 24.2401 13.5263C24.5639 14.0291 24.7259 14.6087 24.7259 15.2649C24.7259 15.7763 24.6236 16.2259 24.419 16.6136C24.2145 16.9972 23.9332 17.3125 23.5753 17.5597C23.2216 17.8026 22.8168 17.9751 22.3608 18.0774V18.2053C22.8594 18.2266 23.326 18.3672 23.7607 18.6271C24.1996 18.8871 24.5554 19.2514 24.8281 19.7202C25.1009 20.1847 25.2372 20.7386 25.2372 21.3821C25.2372 22.0767 25.0646 22.6967 24.7195 23.2422C24.3786 23.7834 23.8736 24.2116 23.2045 24.527C22.5355 24.8423 21.7109 25 20.7308 25H15.1378ZM17.9055 22.7372H20.1619C20.9332 22.7372 21.4957 22.5902 21.8494 22.2962C22.2031 21.9979 22.38 21.6016 22.38 21.1072C22.38 20.745 22.2926 20.4254 22.1179 20.1484C21.9432 19.8714 21.6939 19.6541 21.37 19.4964C21.0504 19.3388 20.669 19.2599 20.2259 19.2599H17.9055V22.7372ZM17.9055 17.3871H19.9574C20.3366 17.3871 20.6733 17.321 20.9673 17.1889C21.2656 17.0526 21.5 16.8608 21.6705 16.6136C21.8452 16.3665 21.9325 16.0703 21.9325 15.7251C21.9325 15.2521 21.7642 14.8707 21.4276 14.581C21.0952 14.2912 20.6222 14.1463 20.0085 14.1463H17.9055V17.3871Z" fill="black" fill-opacity="0.6"/>
<path d="M33.2832 20.8196V15.1818H36.0062V25H33.3919V23.2166H33.2896C33.068 23.7919 32.6994 24.2543 32.1838 24.6037C31.6724 24.9531 31.0481 25.1278 30.3109 25.1278C29.6547 25.1278 29.0772 24.9787 28.5787 24.6804C28.0801 24.3821 27.6902 23.9581 27.4089 23.4084C27.1319 22.8587 26.9913 22.2003 26.987 21.4332V15.1818H29.7101V20.9474C29.7143 21.527 29.8699 21.9851 30.1767 22.3217C30.4835 22.6584 30.8947 22.8267 31.4103 22.8267C31.7385 22.8267 32.0453 22.7521 32.3308 22.603C32.6163 22.4496 32.8464 22.2237 33.0211 21.9254C33.2001 21.6271 33.2875 21.2585 33.2832 20.8196Z" fill="black" fill-opacity="0.6"/>
<path d="M46.3533 17.9815L43.8604 18.1349C43.8178 17.9219 43.7262 17.7301 43.5856 17.5597C43.445 17.3849 43.2596 17.2464 43.0295 17.1442C42.8036 17.0376 42.533 16.9844 42.2177 16.9844C41.7958 16.9844 41.44 17.0739 41.1502 17.2528C40.8604 17.4276 40.7156 17.6619 40.7156 17.956C40.7156 18.1903 40.8093 18.3885 40.9968 18.5504C41.1843 18.7124 41.506 18.8423 41.962 18.9403L43.739 19.2983C44.6935 19.4943 45.4052 19.8097 45.8739 20.2443C46.3427 20.679 46.5771 21.25 46.5771 21.9574C46.5771 22.6009 46.3874 23.1655 46.0082 23.6513C45.6332 24.1371 45.1175 24.5163 44.4613 24.7891C43.8093 25.0575 43.0572 25.1918 42.2049 25.1918C40.9052 25.1918 39.8697 24.9212 39.0984 24.38C38.3313 23.8345 37.8817 23.093 37.7496 22.1555L40.4279 22.0149C40.5089 22.4112 40.7049 22.7138 41.016 22.9226C41.3271 23.1271 41.7255 23.2294 42.2113 23.2294C42.6886 23.2294 43.0721 23.1378 43.3619 22.9545C43.6559 22.767 43.805 22.5263 43.8093 22.2322C43.805 21.9851 43.7006 21.7827 43.4961 21.625C43.2915 21.4631 42.9762 21.3395 42.5501 21.2543L40.8498 20.9155C39.891 20.7237 39.1772 20.3913 38.7085 19.9183C38.244 19.4453 38.0117 18.8423 38.0117 18.1094C38.0117 17.4787 38.1822 16.9354 38.5231 16.4794C38.8683 16.0234 39.3519 15.6719 39.9741 15.4247C40.6005 15.1776 41.3335 15.054 42.1729 15.054C43.413 15.054 44.3889 15.3161 45.1005 15.8402C45.8164 16.3643 46.234 17.0781 46.3533 17.9815Z" fill="black" fill-opacity="0.6"/>
<path d="M52.7278 25.1918C51.7221 25.1918 50.8571 24.9787 50.1326 24.5526C49.4125 24.1222 48.8585 23.5256 48.4707 22.7628C48.0872 22 47.8954 21.1222 47.8954 20.1293C47.8954 19.1236 48.0893 18.2415 48.4771 17.483C48.8691 16.7202 49.4253 16.1257 50.1454 15.6996C50.8656 15.2692 51.7221 15.054 52.715 15.054C53.5716 15.054 54.3216 15.2095 54.965 15.5206C55.6085 15.8317 56.1177 16.2685 56.4927 16.831C56.8677 17.3935 57.0744 18.054 57.1127 18.8125H54.5431C54.4707 18.3224 54.2789 17.9283 53.9679 17.63C53.661 17.3274 53.2583 17.1761 52.7598 17.1761C52.3379 17.1761 51.9693 17.2912 51.6539 17.5213C51.3429 17.7472 51.1 18.0774 50.9252 18.5121C50.7505 18.9467 50.6632 19.473 50.6632 20.0909C50.6632 20.7173 50.7484 21.25 50.9189 21.6889C51.0936 22.1278 51.3386 22.4624 51.6539 22.6925C51.9693 22.9226 52.3379 23.0376 52.7598 23.0376C53.0708 23.0376 53.35 22.9737 53.5971 22.8459C53.8485 22.718 54.0552 22.5327 54.2172 22.2898C54.3833 22.0426 54.492 21.7464 54.5431 21.4013H57.1127C57.0701 22.1513 56.8656 22.8118 56.4991 23.3828C56.1369 23.9496 55.6362 24.3928 54.997 24.7124C54.3578 25.032 53.6014 25.1918 52.7278 25.1918Z" fill="black" fill-opacity="0.6"/>
<path d="M61.6559 25.1854C61.0295 25.1854 60.4712 25.0767 59.9812 24.8594C59.4911 24.6378 59.1033 24.3118 58.8178 23.8814C58.5366 23.4467 58.396 22.9055 58.396 22.2578C58.396 21.7124 58.4961 21.2543 58.6964 20.8835C58.8967 20.5128 59.1694 20.2145 59.5146 19.9886C59.8597 19.7628 60.2518 19.5923 60.6907 19.4773C61.1339 19.3622 61.5984 19.2812 62.0842 19.2344C62.6552 19.1747 63.1154 19.1193 63.4648 19.0682C63.8143 19.0128 64.0678 18.9318 64.2255 18.8253C64.3832 18.7187 64.462 18.5611 64.462 18.3523V18.3139C64.462 17.9091 64.3342 17.5959 64.0785 17.3743C63.8271 17.1527 63.4691 17.0419 63.0046 17.0419C62.5146 17.0419 62.1246 17.1506 61.8349 17.3679C61.5451 17.581 61.3533 17.8494 61.2596 18.1733L58.7411 17.9688C58.869 17.3722 59.1204 16.8565 59.4954 16.4219C59.8704 15.983 60.354 15.6463 60.9464 15.4119C61.543 15.1733 62.2333 15.054 63.0174 15.054C63.5629 15.054 64.0849 15.1179 64.5835 15.2457C65.0863 15.3736 65.5316 15.5717 65.9194 15.8402C66.3114 16.1087 66.6204 16.4538 66.8462 16.8757C67.0721 17.2933 67.185 17.794 67.185 18.3778V25H64.6026V23.6385H64.5259C64.3683 23.9453 64.1573 24.2159 63.8931 24.4503C63.6289 24.6804 63.3114 24.8615 62.9407 24.9936C62.57 25.1214 62.1417 25.1854 61.6559 25.1854ZM62.4357 23.3061C62.8363 23.3061 63.19 23.2273 63.4968 23.0696C63.8036 22.9077 64.0444 22.6903 64.2191 22.4176C64.3938 22.1449 64.4812 21.8359 64.4812 21.4908V20.4489C64.396 20.5043 64.2788 20.5554 64.1296 20.6023C63.9847 20.6449 63.8207 20.6854 63.6374 20.7237C63.4542 20.7578 63.271 20.7898 63.0877 20.8196C62.9045 20.8452 62.7383 20.8686 62.5891 20.8899C62.2695 20.9368 61.9904 21.0114 61.7518 21.1136C61.5131 21.2159 61.3278 21.3544 61.1957 21.5291C61.0636 21.6996 60.9975 21.9126 60.9975 22.1683C60.9975 22.5391 61.1317 22.8224 61.4002 23.0185C61.6729 23.2102 62.0181 23.3061 62.4357 23.3061Z" fill="black" fill-opacity="0.6"/>
<path d="M69.2976 25V15.1818H71.9375V16.8949H72.0398C72.2188 16.2855 72.5192 15.8253 72.941 15.5142C73.3629 15.1989 73.8487 15.0412 74.3984 15.0412C74.5348 15.0412 74.6818 15.0497 74.8395 15.0668C74.9972 15.0838 75.1357 15.1072 75.255 15.1371V17.5533C75.1271 17.5149 74.9503 17.4808 74.7244 17.451C74.4986 17.4212 74.2919 17.4062 74.1044 17.4062C73.7038 17.4062 73.3459 17.4936 73.0305 17.6683C72.7195 17.8388 72.4723 18.0774 72.2891 18.3842C72.1101 18.6911 72.0206 19.0447 72.0206 19.4453V25H69.2976Z" fill="black" fill-opacity="0.6"/>
<path d="M77.1294 25.1662C76.7076 25.1662 76.3454 25.017 76.0428 24.7188C75.7445 24.4162 75.5953 24.054 75.5953 23.6321C75.5953 23.2145 75.7445 22.8565 76.0428 22.5582C76.3454 22.2599 76.7076 22.1108 77.1294 22.1108C77.5385 22.1108 77.8965 22.2599 78.2033 22.5582C78.5101 22.8565 78.6635 23.2145 78.6635 23.6321C78.6635 23.9134 78.5911 24.1712 78.4462 24.4055C78.3056 24.6357 78.1202 24.821 77.8901 24.9616C77.66 25.098 77.4064 25.1662 77.1294 25.1662Z" fill="black" fill-opacity="0.6"/>
<path d="M82.4908 25.1662C82.0689 25.1662 81.7067 25.017 81.4041 24.7188C81.1058 24.4162 80.9567 24.054 80.9567 23.6321C80.9567 23.2145 81.1058 22.8565 81.4041 22.5582C81.7067 22.2599 82.0689 22.1108 82.4908 22.1108C82.8999 22.1108 83.2578 22.2599 83.5646 22.5582C83.8714 22.8565 84.0249 23.2145 84.0249 23.6321C84.0249 23.9134 83.9524 24.1712 83.8075 24.4055C83.6669 24.6357 83.4815 24.821 83.2514 24.9616C83.0213 25.098 82.7678 25.1662 82.4908 25.1662Z" fill="black" fill-opacity="0.6"/>
<path d="M87.8521 25.1662C87.4302 25.1662 87.068 25.017 86.7654 24.7188C86.4672 24.4162 86.318 24.054 86.318 23.6321C86.318 23.2145 86.4672 22.8565 86.7654 22.5582C87.068 22.2599 87.4302 22.1108 87.8521 22.1108C88.2612 22.1108 88.6191 22.2599 88.926 22.5582C89.2328 22.8565 89.3862 23.2145 89.3862 23.6321C89.3862 23.9134 89.3137 24.1712 89.1689 24.4055C89.0282 24.6357 88.8429 24.821 88.6127 24.9616C88.3826 25.098 88.1291 25.1662 87.8521 25.1662Z" fill="black" fill-opacity="0.6"/>
<path d="M104.406 6.02973C98.6677 6.02973 94 10.6975 94 16.4355C94 22.1736 98.6677 26.8413 104.406 26.8413C106.16 26.8413 107.884 26.4251 109.341 25.6224C109.458 25.7628 109.587 25.8922 109.728 26.0089L112.701 28.9819C112.975 29.2908 113.31 29.5404 113.684 29.7152C114.059 29.8901 114.465 29.9865 114.878 29.9987C115.291 30.0108 115.703 29.9384 116.087 29.7859C116.471 29.6334 116.82 29.404 117.112 29.1118C117.404 28.8196 117.633 28.4707 117.786 28.0866C117.938 27.7025 118.011 27.2913 117.999 26.8782C117.987 26.4651 117.89 26.0589 117.715 25.6844C117.54 25.31 117.291 24.9752 116.982 24.7007L114.009 21.7276C113.864 21.5827 113.705 21.4532 113.533 21.3411C114.336 19.8843 114.841 18.1896 114.841 16.4058C114.841 10.6677 110.174 6 104.436 6L104.406 6.02973ZM104.406 9.00282C108.538 9.00282 111.839 12.3029 111.839 16.4355C111.839 18.3978 111.125 20.2113 109.876 21.5492C109.847 21.579 109.817 21.6087 109.787 21.6384C109.647 21.7551 109.517 21.8845 109.401 22.0249C108.092 23.2142 106.309 23.898 104.376 23.898C100.243 23.898 96.9434 20.5978 96.9434 16.4653C96.9434 12.3327 100.243 9.03255 104.376 9.03255L104.406 9.00282Z" fill="black"/>
</svg>
