<svg width="15" height="12" viewBox="0 0 15 12" fill="none" xmlns="http://www.w3.org/2000/svg">
<path d="M13.2975 0.302276C12.8764 -0.110032 12.1997 -0.0992717 11.7919 0.326215L11.1363 1.01034L6.24558 5.90109C5.83751 6.30916 5.17785 6.31538 4.76216 5.91509L3.87163 5.05753L3.16347 4.34938C2.7499 3.93581 2.07937 3.93581 1.6658 4.34938L0.310208 5.70498C-0.103363 6.11855 -0.103362 6.78908 0.310209 7.20265L1.01836 7.9108L4.05375 10.9462L4.70154 11.6221C5.11232 12.0508 5.79516 12.058 6.21497 11.6382L6.90702 10.9462L13.9896 3.86361L14.6898 3.16338C15.1065 2.74673 15.1029 2.07012 14.6819 1.65787L13.2975 0.302276Z" fill="black"/>
</svg>
