<svg width="34" height="29" viewBox="0 0 34 29" fill="none" xmlns="http://www.w3.org/2000/svg">
<path d="M0 1.84829C0 0.827507 0.827507 0 1.84829 0H32.1517C33.1725 0 34 0.827507 34 1.84829C34 2.86907 33.1725 3.69658 32.1517 3.69658H1.84829C0.827507 3.69658 0 2.86907 0 1.84829Z" fill="white"/>
<path d="M0 14.1702C0 13.1494 0.827507 12.3219 1.84829 12.3219H32.1517C33.1725 12.3219 34 13.1494 34 14.1702C34 15.191 33.1725 16.0185 32.1517 16.0185H1.84829C0.827507 16.0185 0 15.191 0 14.1702Z" fill="white"/>
<path d="M1.84829 24.6438C0.827507 24.6438 0 25.4713 0 26.4921C0 27.5129 0.827507 28.3404 1.84829 28.3404H32.1517C33.1725 28.3404 34 27.5129 34 26.4921C34 25.4713 33.1725 24.6438 32.1517 24.6438H1.84829Z" fill="white"/>
</svg>
